<svg width="19" height="20" viewBox="0 0 19 20" fill="none" xmlns="http://www.w3.org/2000/svg">
<path d="M1.06996 1.37495C1.36833 1.07659 1.773 0.908965 2.19496 0.908965C2.61692 0.908965 3.02159 1.07659 3.31996 1.37495L9.69495 7.74994L16.0699 1.37495C16.3683 1.07659 16.773 0.908965 17.1949 0.908965C17.6169 0.908964 18.0216 1.07659 18.3199 1.37495C18.6183 1.67332 18.7859 2.078 18.7859 2.49995C18.7859 2.92191 18.6183 3.32658 18.3199 3.62495L11.9449 9.99994L18.3199 16.3749C18.6183 16.6733 18.7859 17.078 18.7859 17.4999C18.7859 17.9219 18.6183 18.3266 18.3199 18.6249C18.0216 18.9233 17.6169 19.0909 17.1949 19.0909C16.773 19.0909 16.3683 18.9233 16.0699 18.6249L9.69495 12.2499L3.31996 18.6249C3.02159 18.9233 2.61692 19.0909 2.19496 19.0909C1.773 19.0909 1.36833 18.9233 1.06996 18.6249C0.771594 18.3266 0.603972 17.9219 0.603972 17.4999C0.603972 17.078 0.771594 16.6733 1.06996 16.3749L7.44495 9.99994L1.06996 3.62495C0.771594 3.32658 0.603972 2.92191 0.603972 2.49995C0.603972 2.078 0.771594 1.67332 1.06996 1.37495Z" fill="#73767B"/>
</svg>
