<svg width="25" height="30" viewBox="0 0 25 30" fill="none" xmlns="http://www.w3.org/2000/svg">
<path d="M18.6426 13.0181C18.4235 12.808 18.1271 12.6901 17.8181 12.6901C17.5091 12.6901 17.2126 12.808 16.9935 13.0181L12.7946 17.0108L8.65417 13.0181C8.43503 12.808 8.13859 12.6901 7.8296 12.6901C7.52061 12.6901 7.22417 12.808 7.00503 13.0181C6.8954 13.123 6.80839 13.2477 6.74901 13.3851C6.68963 13.5226 6.65906 13.67 6.65906 13.8189C6.65906 13.9678 6.68963 14.1152 6.74901 14.2527C6.80839 14.3901 6.8954 14.5149 7.00503 14.6197L11.9642 19.402C12.0729 19.5077 12.2023 19.5916 12.3448 19.6488C12.4873 19.7061 12.6402 19.7356 12.7946 19.7356C12.949 19.7356 13.1019 19.7061 13.2444 19.6488C13.3869 19.5916 13.5163 19.5077 13.625 19.402L18.6426 14.6197C18.7523 14.5149 18.8393 14.3901 18.8987 14.2527C18.958 14.1152 18.9886 13.9678 18.9886 13.8189C18.9886 13.67 18.958 13.5226 18.8987 13.3851C18.8393 13.2477 18.7523 13.123 18.6426 13.0181Z" fill="black"/>
</svg>
