<svg width="46" height="41" viewBox="0 0 46 41" fill="none" xmlns="http://www.w3.org/2000/svg">
<g filter="url(#filter0_d_7_366)">
<g filter="url(#filter1_d_7_366)">
<path fill-rule="evenodd" clip-rule="evenodd" d="M28.4256 16.7322C31.2942 16.7322 33.6198 13.7865 33.6198 10.6105C33.6198 7.43445 31.2942 5.23077 28.4256 5.23077C25.5569 5.23077 23.2314 7.43445 23.2314 10.6105C23.2314 13.7865 25.5569 16.7322 28.4256 16.7322ZM26.1691 18.9583C21.4734 18.9583 17.6667 22.765 17.6667 27.4607C17.6667 28.3999 18.428 29.1612 19.3672 29.1612H37.2995C38.2387 29.1612 39 28.3999 39 27.4607C39 22.765 35.1934 18.9583 30.4976 18.9583H28.3334H26.1691Z" fill="url(#paint0_linear_7_366)"/>
</g>
<g filter="url(#filter2_d_7_366)">
<path fill-rule="evenodd" clip-rule="evenodd" d="M18.8974 16.7179C22.0695 16.7179 24.641 13.4607 24.641 9.94872C24.641 6.43675 22.0695 4 18.8974 4C15.7253 4 13.1539 6.43675 13.1539 9.94872C13.1539 13.4607 15.7253 16.7179 18.8974 16.7179ZM16.4017 19.1795C11.2093 19.1795 7 23.3888 7 28.5812C7 29.6197 7.84186 30.4615 8.88034 30.4615H28.7094C29.7479 30.4615 30.5897 29.6197 30.5897 28.5812C30.5897 23.3888 26.3805 19.1795 21.188 19.1795H18.7949H16.4017Z" fill="url(#paint1_linear_7_366)"/>
</g>
</g>
<defs>
<filter id="filter0_d_7_366" x="0" y="0" width="46" height="40.4615" filterUnits="userSpaceOnUse" color-interpolation-filters="sRGB">
<feFlood flood-opacity="0" result="BackgroundImageFix"/>
<feColorMatrix in="SourceAlpha" type="matrix" values="0 0 0 0 0 0 0 0 0 0 0 0 0 0 0 0 0 0 127 0" result="hardAlpha"/>
<feOffset dy="3"/>
<feGaussianBlur stdDeviation="3.5"/>
<feComposite in2="hardAlpha" operator="out"/>
<feColorMatrix type="matrix" values="0 0 0 0 0 0 0 0 0 0 0 0 0 0 0 0 0 0 0.2 0"/>
<feBlend mode="normal" in2="BackgroundImageFix" result="effect1_dropShadow_7_366"/>
<feBlend mode="normal" in="SourceGraphic" in2="effect1_dropShadow_7_366" result="shape"/>
</filter>
<filter id="filter1_d_7_366" x="12.6667" y="2.23077" width="31.3333" height="33.9305" filterUnits="userSpaceOnUse" color-interpolation-filters="sRGB">
<feFlood flood-opacity="0" result="BackgroundImageFix"/>
<feColorMatrix in="SourceAlpha" type="matrix" values="0 0 0 0 0 0 0 0 0 0 0 0 0 0 0 0 0 0 127 0" result="hardAlpha"/>
<feOffset dy="2"/>
<feGaussianBlur stdDeviation="2.5"/>
<feComposite in2="hardAlpha" operator="out"/>
<feColorMatrix type="matrix" values="0 0 0 0 0 0 0 0 0 0 0 0 0 0 0 0 0 0 0.05 0"/>
<feBlend mode="normal" in2="BackgroundImageFix" result="effect1_dropShadow_7_366"/>
<feBlend mode="normal" in="SourceGraphic" in2="effect1_dropShadow_7_366" result="shape"/>
</filter>
<filter id="filter2_d_7_366" x="2" y="1" width="33.5897" height="36.4615" filterUnits="userSpaceOnUse" color-interpolation-filters="sRGB">
<feFlood flood-opacity="0" result="BackgroundImageFix"/>
<feColorMatrix in="SourceAlpha" type="matrix" values="0 0 0 0 0 0 0 0 0 0 0 0 0 0 0 0 0 0 127 0" result="hardAlpha"/>
<feOffset dy="2"/>
<feGaussianBlur stdDeviation="2.5"/>
<feComposite in2="hardAlpha" operator="out"/>
<feColorMatrix type="matrix" values="0 0 0 0 0 0 0 0 0 0 0 0 0 0 0 0 0 0 0.05 0"/>
<feBlend mode="normal" in2="BackgroundImageFix" result="effect1_dropShadow_7_366"/>
<feBlend mode="normal" in="SourceGraphic" in2="effect1_dropShadow_7_366" result="shape"/>
</filter>
<linearGradient id="paint0_linear_7_366" x1="24.2308" y1="2.8718" x2="38.1795" y2="29.2308" gradientUnits="userSpaceOnUse">
<stop stop-color="#A2D7CF"/>
<stop offset="1" stop-color="#70CFBF"/>
</linearGradient>
<linearGradient id="paint1_linear_7_366" x1="8.02564" y1="2.87179" x2="31.8205" y2="31.4872" gradientUnits="userSpaceOnUse">
<stop stop-color="#6ABCFB"/>
<stop offset="1" stop-color="#3061C8"/>
</linearGradient>
</defs>
</svg>
