<svg width="31" height="19" viewBox="0 0 31 19" fill="none" xmlns="http://www.w3.org/2000/svg">
<path d="M7.64648 7.23206V12.2321C7.64648 12.4807 7.74526 12.7192 7.92108 12.895C8.09689 13.0708 8.33534 13.1696 8.58398 13.1696C8.83262 13.1696 9.07108 13.0708 9.24689 12.895C9.42271 12.7192 9.52148 12.4807 9.52148 12.2321V7.23206C9.52148 6.98342 9.42271 6.74496 9.24689 6.56914C9.07108 6.39333 8.83262 6.29456 8.58398 6.29456C8.33534 6.29456 8.09689 6.39333 7.92108 6.56914C7.74526 6.74496 7.64648 6.98342 7.64648 7.23206Z" fill="#8115C9"/>
<path d="M6.08398 10.6696H11.084C11.3326 10.6696 11.5711 10.5708 11.7469 10.395C11.9227 10.2192 12.0215 9.9807 12.0215 9.73206C12.0215 9.48342 11.9227 9.24496 11.7469 9.06914C11.5711 8.89333 11.3326 8.79456 11.084 8.79456H6.08398C5.83534 8.79456 5.59689 8.89333 5.42108 9.06914C5.24526 9.24496 5.14648 9.48342 5.14648 9.73206C5.14648 9.9807 5.24526 10.2192 5.42108 10.395C5.59689 10.5708 5.83534 10.6696 6.08398 10.6696Z" fill="#8115C9"/>
<path d="M21.3965 18.1696H8.89648C6.57584 18.1696 4.35025 17.2477 2.7093 15.6067C1.06836 13.9658 0.146484 11.7402 0.146484 9.41956C0.146484 7.09891 1.06836 4.87331 2.7093 3.23237C4.35025 1.59143 6.57584 0.669556 8.89648 0.669556H21.3965C23.7171 0.669556 25.9427 1.59143 27.5837 3.23237C29.2246 4.87331 30.1465 7.09891 30.1465 9.41956C30.1465 11.7402 29.2246 13.9658 27.5837 15.6067C25.9427 17.2477 23.7171 18.1696 21.3965 18.1696ZM21.3965 16.2946C23.2198 16.2946 24.9685 15.5702 26.2578 14.2809C27.5472 12.9916 28.2715 11.2429 28.2715 9.41956C28.2715 7.59619 27.5472 5.84751 26.2578 4.5582C24.9685 3.26888 23.2198 2.54456 21.3965 2.54456H8.89648C7.07312 2.54456 5.32444 3.26888 4.03513 4.5582C2.74582 5.84751 2.02148 7.59619 2.02148 9.41956C2.02148 11.2429 2.74582 12.9916 4.03513 14.2809C5.32444 15.5702 7.07312 16.2946 8.89648 16.2946H21.3965Z" fill="#8115C9"/>
<path fill-rule="evenodd" clip-rule="evenodd" d="M20.7715 11.6071C20.7715 12.0215 20.6069 12.4189 20.3138 12.7119C20.0208 13.0049 19.6234 13.1696 19.209 13.1696C18.7946 13.1696 18.3972 13.0049 18.1041 12.7119C17.8111 12.4189 17.6465 12.0215 17.6465 11.6071C17.6465 11.1927 17.8111 10.7952 18.1041 10.5022C18.3972 10.2092 18.7946 10.0446 19.209 10.0446C19.6234 10.0446 20.0208 10.2092 20.3138 10.5022C20.6069 10.7952 20.7715 11.1927 20.7715 11.6071ZM24.5215 7.85706C24.5215 8.27146 24.3569 8.66888 24.0638 8.96191C23.7708 9.25494 23.3734 9.41956 22.959 9.41956C22.5446 9.41956 22.1472 9.25494 21.8541 8.96191C21.5611 8.66888 21.3965 8.27146 21.3965 7.85706C21.3965 7.44265 21.5611 7.04523 21.8541 6.7522C22.1472 6.45918 22.5446 6.29456 22.959 6.29456C23.3734 6.29456 23.7708 6.45918 24.0638 6.7522C24.3569 7.04523 24.5215 7.44265 24.5215 7.85706Z" fill="#8115C9"/>
</svg>
