<svg width="27" height="26" viewBox="0 0 27 26" fill="none" xmlns="http://www.w3.org/2000/svg">
<path d="M26.4412 12.787L14.1736 0.284738C14.0853 0.194477 13.9804 0.122867 13.8649 0.0740083C13.7494 0.0251493 13.6256 0 13.5006 0C13.3755 0 13.2517 0.0251493 13.1362 0.0740083C13.0207 0.122867 12.9158 0.194477 12.8275 0.284738L0.559917 12.787C0.202523 13.1515 0 13.6466 0 14.163C0 15.2352 0.854767 16.1069 1.9061 16.1069H3.19868V25.028C3.19868 25.5656 3.62457 26 4.15173 26H11.5945V19.1961H14.9301V26H22.8494C23.3765 26 23.8024 25.5656 23.8024 25.028V16.1069H25.095C25.6013 16.1069 26.0868 15.9034 26.4442 15.5359C27.1858 14.7765 27.1858 13.5464 26.4412 12.787Z" fill="#1579F3"/>
</svg>
