<svg width="28" height="25" viewBox="0 0 28 25" fill="none" xmlns="http://www.w3.org/2000/svg">
<path d="M1.5 6.875L7.0125 1.91375C7.24507 1.70319 7.52165 1.53613 7.82629 1.42221C8.13093 1.30829 8.45761 1.24977 8.7875 1.25H19.2125C19.5424 1.24977 19.8691 1.30829 20.1737 1.42221C20.4784 1.53613 20.7549 1.70319 20.9875 1.91375L26.5 6.875M4 12.5V21.5C4 22.0967 4.26339 22.669 4.73223 23.091C5.20107 23.5129 5.83696 23.75 6.5 23.75H21.5C22.163 23.75 22.7989 23.5129 23.2678 23.091C23.7366 22.669 24 22.0967 24 21.5V12.5" stroke="#73767B" stroke-width="2" stroke-linecap="round" stroke-linejoin="round"/>
<path d="M17.75 23.75V19.25C17.75 18.6533 17.4866 18.081 17.0178 17.659C16.5489 17.2371 15.913 17 15.25 17H12.75C12.087 17 11.4511 17.2371 10.9822 17.659C10.5134 18.081 10.25 18.6533 10.25 19.25V23.75M1.5 6.875H26.5V10.25C26.5 10.8467 26.2366 11.419 25.7678 11.841C25.2989 12.2629 24.663 12.5 24 12.5C23.2697 12.4638 22.5722 12.2151 22.0125 11.7912C21.8634 11.6942 21.684 11.642 21.5 11.642C21.316 11.642 21.1366 11.6942 20.9875 11.7912C20.4278 12.2151 19.7303 12.4638 19 12.5C18.2697 12.4638 17.5722 12.2151 17.0125 11.7912C16.8634 11.6942 16.684 11.642 16.5 11.642C16.316 11.642 16.1366 11.6942 15.9875 11.7912C15.4278 12.2151 14.7303 12.4638 14 12.5C13.2697 12.4638 12.5722 12.2151 12.0125 11.7912C11.8634 11.6942 11.684 11.642 11.5 11.642C11.316 11.642 11.1366 11.6942 10.9875 11.7912C10.4278 12.2151 9.73033 12.4638 9 12.5C8.26967 12.4638 7.57216 12.2151 7.0125 11.7912C6.86335 11.6942 6.68402 11.642 6.5 11.642C6.31598 11.642 6.13665 11.6942 5.9875 11.7912C5.42784 12.2151 4.73033 12.4638 4 12.5C3.33696 12.5 2.70107 12.2629 2.23223 11.841C1.76339 11.419 1.5 10.8467 1.5 10.25V6.875Z" stroke="#73767B" stroke-width="2" stroke-linecap="round" stroke-linejoin="round"/>
</svg>
