<svg width="14" height="13" viewBox="0 0 14 13" fill="none" xmlns="http://www.w3.org/2000/svg">
<path d="M4.9375 6.65619C5.68342 6.65619 6.39879 6.35266 6.92624 5.81238C7.45368 5.27209 7.75 4.53931 7.75 3.77523C7.75 3.01115 7.45368 2.27837 6.92624 1.73808C6.39879 1.1978 5.68342 0.894272 4.9375 0.894272C4.19158 0.894272 3.47621 1.1978 2.94876 1.73808C2.42132 2.27837 2.125 3.01115 2.125 3.77523C2.125 4.53931 2.42132 5.27209 2.94876 5.81238C3.47621 6.35266 4.19158 6.65619 4.9375 6.65619ZM12.125 4.73555C12.125 5.24493 11.9275 5.73346 11.5758 6.09365C11.2242 6.45384 10.7473 6.65619 10.25 6.65619C9.75272 6.65619 9.27581 6.45384 8.92417 6.09365C8.57254 5.73346 8.375 5.24493 8.375 4.73555C8.375 4.22616 8.57254 3.73764 8.92417 3.37745C9.27581 3.01726 9.75272 2.81491 10.25 2.81491C10.7473 2.81491 11.2242 3.01726 11.5758 3.37745C11.9275 3.73764 12.125 4.22616 12.125 4.73555ZM4.9375 7.2964C6.18313 7.2964 7.31563 7.68565 8.14813 8.23495C8.565 8.51024 8.92188 8.83483 9.18125 9.18887C9.43563 9.53779 9.625 9.95713 9.625 10.4059C9.625 10.8893 9.40625 11.2766 9.085 11.5564C8.78187 11.8189 8.38688 11.9892 7.97875 12.1063C7.15812 12.3413 6.0725 12.4181 4.9375 12.4181C3.8025 12.4181 2.71688 12.3413 1.89688 12.1063C1.48813 11.9892 1.09312 11.8189 0.790625 11.5564C0.468125 11.2772 0.25 10.8893 0.25 10.4059C0.25 9.95649 0.439375 9.53779 0.69375 9.18951C0.953125 8.83483 1.31 8.5096 1.72687 8.23559C2.55938 7.68501 3.69187 7.2964 4.9375 7.2964ZM10.25 7.2964C11.075 7.2964 11.8237 7.57553 12.375 7.96926C12.8888 8.33611 13.375 8.91486 13.375 9.5826C13.375 9.95841 13.2169 10.2696 12.9762 10.4955C12.7531 10.7055 12.4706 10.8336 12.1987 10.9181C11.655 11.0865 10.955 11.1377 10.25 11.1377H10.1231C10.2044 10.9149 10.25 10.6703 10.25 10.4059C10.25 9.77211 9.98563 9.22152 9.68125 8.80538C9.3775 8.38989 8.975 8.02432 8.52563 7.72278C9.0594 7.44293 9.65037 7.2968 10.25 7.2964Z" fill="#73767B"/>
</svg>
