<svg width="21" height="27" viewBox="0 0 21 27" fill="none" xmlns="http://www.w3.org/2000/svg">
<path d="M10.4797 0C11.9499 0 13.1406 1.2123 13.1406 2.7081L13.1284 2.92815C14.3002 3.40335 15.4329 4.19175 16.4373 5.23665C17.601 6.4422 18.2814 8.0406 18.4906 10.0913V17.4866L20.0985 20.3188C20.6385 21.218 20.8113 21.9713 20.3901 22.6233C20.004 23.2186 19.3141 23.4265 18.3786 23.4104H14.7741C14.3529 25.461 12.5682 27 10.4325 27C8.2941 27 6.51075 25.461 6.0909 23.4117H2.1003L2.0247 23.4077C1.17825 23.3348 0.547798 22.9257 0.406048 22.1387C0.310198 21.6027 0.437098 21.0276 0.767848 20.3418L2.4216 17.3988L2.42565 10.0103C2.5701 8.37675 3.18165 6.8553 4.24545 5.4594C5.1459 4.27815 6.43245 3.40875 7.82835 2.9079C7.82283 2.84144 7.82013 2.77478 7.82025 2.7081C7.82025 1.2123 9.01095 0 10.4797 0ZM12.934 23.4117H7.93095C8.3022 24.4512 9.28095 25.1937 10.4325 25.1937C11.5827 25.1937 12.5628 24.4512 12.934 23.4117ZM10.6107 4.2174C8.7828 4.2174 6.77265 5.08815 5.64675 6.5664C4.78545 7.695 4.30485 8.8911 4.1955 10.0899V17.6364C4.1955 17.7943 4.155 17.9496 4.07805 18.086L2.3352 21.1856C2.26765 21.3199 2.2134 21.4605 2.1732 21.6054H18.3921C18.5554 21.6081 18.6796 21.6014 18.7647 21.5986C18.7082 21.4759 18.6446 21.3564 18.5743 21.2409L16.8369 18.1805C16.7588 18.0425 16.7179 17.8867 16.7181 17.7282L16.7221 10.1871C16.5588 8.6184 16.039 7.4007 15.171 6.4989C13.767 5.0409 12.1173 4.2174 10.6107 4.2174ZM10.4797 1.80495C10.2828 1.80631 10.0918 1.87289 9.93674 1.99429C9.78164 2.11568 9.67114 2.28504 9.6225 2.4759C9.9546 2.43405 10.284 2.41245 10.6107 2.41245C10.8496 2.41245 11.0913 2.42595 11.3329 2.45565C11.2807 2.26922 11.1692 2.10487 11.0153 1.98746C10.8613 1.87006 10.6733 1.80599 10.4797 1.80495Z" fill="#73767B"/>
</svg>
