<svg width="19" height="16" viewBox="0 0 19 16" fill="none" xmlns="http://www.w3.org/2000/svg">
<path d="M9.41378 8.41385C10.9639 8.41385 12.3683 8.92696 13.3986 9.64447C14.3776 10.3272 15.2069 11.3419 15.2069 12.4334C15.2069 13.0326 14.9512 13.5292 14.5481 13.8983C14.1691 14.2467 13.6742 14.4726 13.1644 14.6265C12.1456 14.9352 10.8041 15.0345 9.41378 15.0345C8.02344 15.0345 6.68192 14.9352 5.66316 14.6265C5.15337 14.4726 4.65847 14.2467 4.27861 13.8983C3.87723 13.53 3.62068 13.0334 3.62068 12.4343C3.62068 11.3427 4.44992 10.3281 5.42896 9.6453C6.4593 8.92696 7.86371 8.41385 9.41378 8.41385ZM15.2069 9.24144C16.0709 9.24144 16.8554 9.52696 17.4356 9.93082C17.9652 10.3007 18.5172 10.9156 18.5172 11.6654C18.5172 12.0933 18.331 12.4483 18.0538 12.7024C17.8005 12.935 17.4877 13.0715 17.2022 13.1576C16.8132 13.2751 16.3539 13.3355 15.8772 13.362C15.9782 13.0765 16.0345 12.7661 16.0345 12.4334C16.0345 11.1631 15.2408 10.0839 14.3528 9.33496C14.6333 9.27287 14.9196 9.24151 15.2069 9.24144ZM3.62068 9.24144C3.91613 9.24144 4.20247 9.27454 4.47475 9.33496C3.58758 10.0839 2.79309 11.1631 2.79309 12.4334C2.79309 12.7661 2.84937 13.0765 2.95033 13.362C2.47364 13.3355 2.01516 13.2751 1.62537 13.1576C1.33985 13.0715 1.02702 12.935 0.772955 12.7024C0.627199 12.572 0.510638 12.4123 0.430913 12.2338C0.351187 12.0552 0.310097 11.8618 0.310334 11.6663C0.310334 10.9173 0.861507 10.3016 1.39199 9.93165C2.04806 9.48162 2.8251 9.24098 3.62068 9.24144ZM14.7931 4.27592C15.3418 4.27592 15.8681 4.4939 16.2561 4.88191C16.6441 5.26991 16.8621 5.79616 16.8621 6.34489C16.8621 6.89361 16.6441 7.41986 16.2561 7.80787C15.8681 8.19587 15.3418 8.41385 14.7931 8.41385C14.2444 8.41385 13.7181 8.19587 13.3301 7.80787C12.9421 7.41986 12.7241 6.89361 12.7241 6.34489C12.7241 5.79616 12.9421 5.26991 13.3301 4.88191C13.7181 4.4939 14.2444 4.27592 14.7931 4.27592ZM4.03447 4.27592C4.5832 4.27592 5.10945 4.4939 5.49745 4.88191C5.88546 5.26991 6.10344 5.79616 6.10344 6.34489C6.10344 6.89361 5.88546 7.41986 5.49745 7.80787C5.10945 8.19587 4.5832 8.41385 4.03447 8.41385C3.48575 8.41385 2.9595 8.19587 2.57149 7.80787C2.18349 7.41986 1.96551 6.89361 1.96551 6.34489C1.96551 5.79616 2.18349 5.26991 2.57149 4.88191C2.9595 4.4939 3.48575 4.27592 4.03447 4.27592ZM9.41378 0.965576C10.2917 0.965576 11.1337 1.31434 11.7545 1.93515C12.3754 2.55596 12.7241 3.39796 12.7241 4.27592C12.7241 5.15388 12.3754 5.99588 11.7545 6.61669C11.1337 7.2375 10.2917 7.58627 9.41378 7.58627C8.53582 7.58627 7.69382 7.2375 7.07301 6.61669C6.4522 5.99588 6.10344 5.15388 6.10344 4.27592C6.10344 3.39796 6.4522 2.55596 7.07301 1.93515C7.69382 1.31434 8.53582 0.965576 9.41378 0.965576Z" fill="#73767B"/>
</svg>
