<svg width="14" height="14" viewBox="0 0 14 14" fill="none" xmlns="http://www.w3.org/2000/svg">
<path d="M6.94034 1.90909C7.11439 1.90909 7.28131 1.97823 7.40438 2.1013C7.52745 2.22437 7.59659 2.39129 7.59659 2.56534V6.28409H11.3153C11.4894 6.28409 11.6563 6.35323 11.7794 6.4763C11.9024 6.59937 11.9716 6.76629 11.9716 6.94034C11.9716 7.11439 11.9024 7.28131 11.7794 7.40438C11.6563 7.52745 11.4894 7.59659 11.3153 7.59659H7.59659V11.3153C7.59659 11.4894 7.52745 11.6563 7.40438 11.7794C7.28131 11.9024 7.11439 11.9716 6.94034 11.9716C6.76629 11.9716 6.59937 11.9024 6.4763 11.7794C6.35323 11.6563 6.28409 11.4894 6.28409 11.3153V7.59659H2.56534C2.39129 7.59659 2.22437 7.52745 2.1013 7.40438C1.97823 7.28131 1.90909 7.11439 1.90909 6.94034C1.90909 6.76629 1.97823 6.59937 2.1013 6.4763C2.22437 6.35323 2.39129 6.28409 2.56534 6.28409H6.28409V2.56534C6.28409 2.39129 6.35323 2.22437 6.4763 2.1013C6.59937 1.97823 6.76629 1.90909 6.94034 1.90909Z" fill="white"/>
</svg>
