<svg width="28" height="24" viewBox="0 0 28 24" fill="none" xmlns="http://www.w3.org/2000/svg">
<path d="M10.625 7.095V16.905C10.625 17.4675 11.2415 17.8118 11.7207 17.5193L19.0535 13.0373C19.2313 12.9288 19.3783 12.7764 19.4803 12.5948C19.5822 12.4131 19.6358 12.2083 19.6358 12C19.6358 11.7917 19.5822 11.5869 19.4803 11.4052C19.3783 11.2236 19.2313 11.0712 19.0535 10.9628L11.7185 6.483C11.6094 6.4168 11.4847 6.38079 11.3571 6.37865C11.2295 6.3765 11.1036 6.40831 10.9924 6.47081C10.8811 6.5333 10.7885 6.62424 10.7239 6.73431C10.6594 6.84439 10.6252 6.96739 10.625 7.095ZM6.125 0.75C4.63316 0.75 3.20242 1.34263 2.14752 2.39752C1.09263 3.45242 0.5 4.88316 0.5 6.375V17.625C0.5 19.1168 1.09263 20.5476 2.14752 21.6025C3.20242 22.6574 4.63316 23.25 6.125 23.25H21.875C23.3668 23.25 24.7976 22.6574 25.8525 21.6025C26.9074 20.5476 27.5 19.1168 27.5 17.625V6.375C27.5 4.88316 26.9074 3.45242 25.8525 2.39752C24.7976 1.34263 23.3668 0.75 21.875 0.75H6.125ZM2.75 6.375C2.75 5.47989 3.10558 4.62145 3.73851 3.98851C4.37145 3.35558 5.22989 3 6.125 3H21.875C22.7701 3 23.6286 3.35558 24.2615 3.98851C24.8944 4.62145 25.25 5.47989 25.25 6.375V17.625C25.25 18.5201 24.8944 19.3786 24.2615 20.0115C23.6286 20.6444 22.7701 21 21.875 21H6.125C5.22989 21 4.37145 20.6444 3.73851 20.0115C3.10558 19.3786 2.75 18.5201 2.75 17.625V6.375Z" fill="#73767B"/>
</svg>
