<svg width="26" height="26" viewBox="0 0 26 26" fill="none" xmlns="http://www.w3.org/2000/svg">
<g clip-path="url(#clip0_1_62)">
<path d="M15.0995 2.38753C14.4711 0.257459 11.4525 0.257459 10.8242 2.38753L10.672 2.90484C10.5781 3.22373 10.414 3.51757 10.1918 3.7648C9.96959 4.01203 9.69484 4.20638 9.38772 4.33361C9.0806 4.46083 8.74889 4.5177 8.41694 4.50005C8.08498 4.48239 7.76118 4.39066 7.46929 4.23157L6.99763 3.97292C5.04556 2.91092 2.91092 5.04556 3.97444 6.99611L4.23157 7.46929C4.91015 8.7169 4.26657 10.2703 2.90484 10.672L2.38753 10.8242C0.257459 11.4525 0.257459 14.4711 2.38753 15.0995L2.90484 15.2517C3.22373 15.3456 3.51757 15.5096 3.7648 15.7319C4.01203 15.9541 4.20638 16.2288 4.33361 16.536C4.46083 16.8431 4.5177 17.1748 4.50005 17.5067C4.48239 17.8387 4.39066 18.1625 4.23157 18.4544L3.97292 18.9261C2.91092 20.8781 5.04556 23.0128 6.99611 21.9492L7.46929 21.6921C7.76118 21.533 8.08498 21.4413 8.41694 21.4236C8.74889 21.406 9.0806 21.4628 9.38772 21.5901C9.69484 21.7173 9.96959 21.9116 10.1918 22.1589C10.414 22.4061 10.5781 22.6999 10.672 23.0188L10.8242 23.5361C11.4525 25.6662 14.4711 25.6662 15.0995 23.5361L15.2517 23.0188C15.3456 22.6999 15.5096 22.4061 15.7319 22.1589C15.9541 21.9116 16.2288 21.7173 16.536 21.5901C16.8431 21.4628 17.1748 21.406 17.5067 21.4236C17.8387 21.4413 18.1625 21.533 18.4544 21.6921L18.9261 21.9508C20.8781 23.0128 23.0128 20.8781 21.9492 18.9276L21.6921 18.4544C21.533 18.1625 21.4413 17.8387 21.4236 17.5067C21.406 17.1748 21.4628 16.8431 21.5901 16.536C21.7173 16.2288 21.9116 15.9541 22.1589 15.7319C22.4061 15.5096 22.6999 15.3456 23.0188 15.2517L23.5361 15.0995C25.6662 14.4711 25.6662 11.4525 23.5361 10.8242L23.0188 10.672C22.6999 10.5781 22.4061 10.414 22.1589 10.1918C21.9116 9.96959 21.7173 9.69484 21.5901 9.38772C21.4628 9.0806 21.406 8.74889 21.4236 8.41694C21.4413 8.08498 21.533 7.76118 21.6921 7.46929L21.9508 6.99763C23.0128 5.04556 20.8781 2.91092 18.9276 3.97444L18.4544 4.23157C18.1625 4.39066 17.8387 4.48239 17.5067 4.50005C17.1748 4.5177 16.8431 4.46083 16.536 4.33361C16.2288 4.20638 15.9541 4.01203 15.7319 3.7648C15.5096 3.51757 15.3456 3.22373 15.2517 2.90484L15.0995 2.38753ZM12.9618 17.4198C11.7795 17.4198 10.6456 16.9501 9.8096 16.1141C8.97357 15.2781 8.50389 14.1442 8.50389 12.9618C8.50389 11.7795 8.97357 10.6456 9.8096 9.8096C10.6456 8.97357 11.7795 8.50389 12.9618 8.50389C14.1438 8.50389 15.2773 8.97341 16.113 9.80915C16.9487 10.6449 17.4183 11.7784 17.4183 12.9603C17.4183 14.1422 16.9487 15.2757 16.113 16.1115C15.2773 16.9472 14.1438 17.4167 12.9618 17.4167V17.4198Z" fill="#3C4147"/>
</g>
<defs>
<clipPath id="clip0_1_62">
<rect width="24.3437" height="24.3437" fill="white" transform="translate(0.789978 0.789978)"/>
</clipPath>
</defs>
</svg>
