<svg width="18" height="7" viewBox="0 0 18 7" fill="none" xmlns="http://www.w3.org/2000/svg">
<path d="M11.4762 3.46465C11.4762 2.95817 11.331 2.46305 11.0589 2.04192C10.7868 1.62079 10.4001 1.29256 9.9476 1.09874C9.49513 0.904911 8.99725 0.854197 8.51692 0.953008C8.03659 1.05182 7.59537 1.29572 7.24907 1.65386C6.90277 2.012 6.66693 2.4683 6.57139 2.96506C6.47584 3.46181 6.52488 3.97671 6.7123 4.44465C6.89972 4.91258 7.2171 5.31253 7.6243 5.59392C8.03151 5.87531 8.51026 6.02551 9 6.02551C9.65673 6.02551 10.2866 5.7557 10.7509 5.27545C11.2153 4.7952 11.4762 4.14383 11.4762 3.46465ZM2.47619 6.02551C1.98645 6.02551 1.5077 5.87531 1.10049 5.59392C0.693287 5.31253 0.375907 4.91258 0.18849 4.44465C0.00107296 3.97671 -0.047964 3.46181 0.0475804 2.96506C0.143125 2.4683 0.378959 2.012 0.725261 1.65386C1.07156 1.29572 1.51278 1.05182 1.99311 0.953008C2.47344 0.854197 2.97132 0.904911 3.42379 1.09874C3.87625 1.29256 4.26298 1.62079 4.53507 2.04192C4.80716 2.46305 4.95238 2.95817 4.95238 3.46465C4.95238 4.14383 4.6915 4.7952 4.22712 5.27545C3.76275 5.7557 3.13292 6.02551 2.47619 6.02551ZM15.5238 6.02551C15.0341 6.02551 14.5553 5.87531 14.1481 5.59392C13.7409 5.31253 13.4235 4.91258 13.2361 4.44465C13.0487 3.97671 12.9997 3.46181 13.0952 2.96506C13.1907 2.4683 13.4266 2.012 13.7729 1.65386C14.1192 1.29572 14.5604 1.05182 15.0407 0.953008C15.5211 0.854197 16.0189 0.904911 16.4714 1.09874C16.9239 1.29256 17.3106 1.62079 17.5827 2.04192C17.8548 2.46305 18 2.95817 18 3.46465C18 4.14383 17.7391 4.7952 17.2747 5.27545C16.8104 5.7557 16.1805 6.02551 15.5238 6.02551Z" fill="#73767B"/>
</svg>
